/* XPM */
static char *result[] = {
/* columns rows colors chars-per-pixel */
"16 16 149 2 ",
"   c #3E1413",
".  c #411A17",
"X  c #471A17",
"o  c #4C1817",
"O  c #441918",
"+  c #501917",
"@  c #501E1B",
"#  c #541F1C",
"$  c #561F1C",
"%  c #50221F",
"&  c #53271D",
"*  c #60291B",
"=  c #4D2622",
"-  c #512722",
";  c #562726",
":  c #562A23",
">  c #56332D",
",  c #5D362F",
"<  c #5C3730",
"1  c #5D3A32",
"2  c #6A342E",
"3  c #723228",
"4  c #77372A",
"5  c #78382D",
"6  c #673B32",
"7  c #623D37",
"8  c #683E36",
"9  c #773D34",
"0  c #6D4037",
"q  c #664239",
"w  c #63433F",
"e  c #6D4539",
"r  c #6E453D",
"t  c #754137",
"y  c #7E4135",
"u  c #72413A",
"i  c #764239",
"p  c #7C453A",
"a  c #7D473E",
"s  c #6A4641",
"d  c #6B4842",
"f  c #764A42",
"g  c #724C46",
"h  c #7D4C42",
"j  c #754F49",
"k  c #77514A",
"l  c #72514D",
"z  c #78524B",
"x  c #795750",
"c  c #7F5651",
"v  c #8A4A31",
"b  c #854A3E",
"n  c #88573B",
"m  c #825A38",
"M  c #9D513A",
"N  c #A55836",
"B  c #A0752F",
"V  c #B67A3E",
"C  c #844B40",
"Z  c #824E44",
"A  c #834F45",
"S  c #865146",
"D  c #895140",
"F  c #8C5143",
"G  c #8A5144",
"H  c #865549",
"J  c #81554D",
"K  c #88524A",
"L  c #8C5549",
"P  c #8E564B",
"I  c #82594C",
"U  c #8E5A4F",
"Y  c #8B5D4D",
"T  c #9F5645",
"R  c #865C52",
"E  c #8C5850",
"W  c #A45643",
"Q  c #AA5D43",
"!  c #8E6456",
"~  c #84625A",
"^  c #8A6259",
"/  c #9A6053",
"(  c #9E6153",
")  c #996959",
"_  c #9C695A",
"`  c #AB6746",
"'  c #AE754D",
"]  c #BD6D50",
"[  c #A87A5C",
"{  c #A97D5E",
"}  c #B07058",
"|  c #8E6E63",
" . c #946B64",
".. c #9A6F65",
"X. c #957468",
"o. c #94766D",
"O. c #9D786D",
"+. c #A17566",
"@. c #AB7363",
"#. c #A57D6E",
"$. c #B27464",
"%. c #C47558",
"&. c #B68C2D",
"*. c #BD8B46",
"=. c #A4816B",
"-. c #A98169",
";. c #AB8575",
":. c #B38472",
">. c #BA8B7F",
",. c #BE917B",
"<. c #B8927C",
"1. c #BC907C",
"2. c #C99E44",
"3. c #F6AF5E",
"4. c #D68863",
"5. c #D1846D",
"6. c #C7907D",
"7. c #C5937F",
"8. c #C2957D",
"9. c #F19763",
"0. c #F59761",
"q. c #E0A465",
"w. c #EBB66F",
"e. c #F6B06B",
"r. c #B69882",
"t. c #B79A83",
"y. c #B79C85",
"u. c #B69E86",
"i. c #BD9D82",
"p. c #B99B86",
"a. c #BE9D84",
"s. c #C49381",
"d. c #C09480",
"f. c #C39981",
"g. c #C79E88",
"h. c #C5A58C",
"j. c #D1A288",
"k. c #C4A790",
"l. c #CDAE94",
"z. c #D0AA92",
"x. c #D4AE98",
"c. c #D7B49C",
"v. c #E7B59A",
"b. c #F1CBAB",
"n. c #E4CBB7",
"m. c #F1DEC2",
"M. c #F4E0C1",
"N. c #FBE9D0",
"B. c None",
/* pixels */
"B.B.B.B.B.B.B.B.B.B.B.B.B.B.B.B.",
"B.B.B.B.N v B.B.B.B.B.B.B.B.B.B.",
"B.B.B.B.Q M B.B.B.B.B.B.B.B.B.B.",
"B.B.B.B.} Z % B.B.B.B.B.B.w > B.",
"B.B.B.B.@.U @ ; B.B.B.B.d = 1 B.",
"B.B.B.B.$.A + o f ;.O.r O , B.B.",
"B.B.B.B./ P 3 ] q.w.[ 0 6 x B.B.",
"B.B.B.g h t T 9.e.3.V u R k B.B.",
"B.B.B.^ H a 9 ` 5 W 4 # J z B.B.",
"B.B.7 8 S p ( 2.B F $ * m & l B.",
"B.B.  - G 4.b ' *.C 2 n &.Y < B.",
"B.B.. X D 0.y K >.L E  .! { q B.",
"B.B.s : i %.5.v.N.n...c j e B.B.",
"B.B.~ #.) _ 6.b.M.m.c.+.I =.B.B.",
"B.o.X.<.8.x.7.1.j.s.d.:.p.t.B.B.",
"B.| -.a.k.l.z.f.,.g.h.i.y.r.u.B."
};
