/* XPM */
static char *result[] = {
/* columns rows colors chars-per-pixel */
"64 64 246 2 ",
"   c #3C0D0D",
".  c #350B0B",
"X  c #3D100F",
"o  c #3D1412",
"O  c #3F1815",
"+  c #420D0E",
"@  c #490F0F",
"#  c #44100F",
"$  c #4B0F10",
"%  c #431312",
"&  c #4C1312",
"*  c #451E1A",
"=  c #4A1D1A",
"-  c #461917",
";  c #541615",
":  c #551C1A",
">  c #591D1B",
",  c #551B16",
"<  c #4C221D",
"1  c #44211D",
"2  c #53231E",
"3  c #5C221E",
"4  c #4C2723",
"5  c #542621",
"6  c #5B2621",
"7  c #532A24",
"8  c #5C2B25",
"9  c #552E28",
"0  c #5B2E29",
"q  c #55312B",
"w  c #5C332B",
"e  c #5D3A32",
"r  c #593430",
"t  c #622B25",
"y  c #642F28",
"u  c #682A25",
"i  c #63342D",
"p  c #6A332B",
"a  c #61392F",
"s  c #6D3928",
"d  c #71332C",
"f  c #76392E",
"g  c #643C33",
"h  c #6B3B32",
"j  c #693933",
"k  c #733D34",
"l  c #773B34",
"z  c #723F1A",
"x  c #65423A",
"c  c #6B443B",
"v  c #6C4135",
"b  c #734135",
"n  c #73453B",
"m  c #7B463A",
"M  c #7D4A3E",
"N  c #774639",
"B  c #6D4228",
"V  c #6E4C2A",
"C  c #6D4A44",
"Z  c #6C4B46",
"A  c #734B43",
"S  c #7C4C43",
"D  c #734F4A",
"F  c #794D48",
"G  c #74524C",
"H  c #7B534C",
"J  c #7C5246",
"K  c #7C5B54",
"L  c #785854",
"P  c #6F504C",
"I  c #7C625C",
"U  c #7C6161",
"Y  c #7D5F60",
"T  c #813830",
"R  c #986B19",
"E  c #84572A",
"W  c #824B3D",
"Q  c #834539",
"!  c #97493A",
"~  c #99573A",
"^  c #934F30",
"/  c #A8532A",
"(  c #A65537",
")  c #A74C38",
"_  c #946731",
"`  c #AE7136",
"'  c #A1791F",
"]  c #834D42",
"[  c #884F41",
"{  c #835146",
"}  c #8B5245",
"|  c #84544B",
" . c #8A554A",
".. c #8C594D",
"X. c #875A49",
"o. c #965849",
"O. c #845C54",
"+. c #8D5D53",
"@. c #885F59",
"#. c #945D52",
"$. c #985E52",
"%. c #A65948",
"&. c #B1584A",
"*. c #84645B",
"=. c #8B635B",
"-. c #8B655B",
";. c #956155",
":. c #9C6255",
">. c #93645B",
",. c #936A5E",
"<. c #9B6959",
"1. c #9B7356",
"2. c #A8654A",
"3. c #B96748",
"4. c #A36A5C",
"5. c #AA6C5D",
"6. c #A56555",
"7. c #B86A55",
"8. c #A97657",
"9. c #B87757",
"0. c #BD724C",
"q. c #8B6B63",
"w. c #876964",
"e. c #936C63",
"r. c #9B6C63",
"t. c #8B716B",
"y. c #95746C",
"u. c #9B7468",
"i. c #9C7C72",
"p. c #877572",
"a. c #A56E61",
"s. c #AD7262",
"d. c #A3756B",
"f. c #A47B6B",
"g. c #AD7C6B",
"h. c #A67566",
"j. c #B37465",
"k. c #B37B6B",
"l. c #BA7B6A",
"z. c #B87767",
"x. c #A57D73",
"c. c #B17E71",
"v. c #D66D53",
"b. c #CC7659",
"n. c #D87A5B",
"m. c #C6684C",
"M. c #C27B6A",
"N. c #D97E64",
"B. c #B5921D",
"V. c #B58530",
"C. c #C39B15",
"Z. c #D9B516",
"A. c #CDAC17",
"S. c #D5AC2E",
"D. c #E4B927",
"F. c #C79738",
"G. c #ECCF11",
"H. c #FEEE08",
"J. c #F1CA26",
"K. c #9B8177",
"L. c #AE836D",
"P. c #B4826E",
"I. c #B78569",
"U. c #A98779",
"Y. c #B38474",
"T. c #BC8572",
"R. c #BB8A75",
"E. c #BC8D7A",
"W. c #B48B77",
"Q. c #AC907C",
"!. c #B3927C",
"~. c #BB927B",
"^. c #BA967B",
"/. c #BF946D",
"(. c #BC9A51",
"). c #DA845A",
"_. c #EA8758",
"`. c #F38859",
"'. c #F29458",
"]. c #FEA954",
"[. c #F9B252",
"{. c #C6956B",
"}. c #C58B77",
"|. c #D88D75",
" X c #C3937C",
".X c #C59877",
"XX c #D4947D",
"oX c #CF8A6A",
"OX c #E59667",
"+X c #FC9D63",
"@X c #F59863",
"#X c #E88C61",
"$X c #D1A878",
"%X c #FAA469",
"&X c #FEB769",
"*X c #F9BB73",
"=X c #EEA372",
"-X c #FCC351",
";X c #FCC779",
":X c #FDDB76",
">X c #FED169",
",X c #FEE077",
"<X c #AB8B84",
"1X c #B49481",
"2X c #BB9D84",
"3X c #B79A87",
"4X c #B0958A",
"5X c #BBA38D",
"6X c #BBA087",
"7X c #BAA596",
"8X c #B8A8A1",
"9X c #C39C84",
"0X c #C89A87",
"qX c #D89A83",
"wX c #CC9E93",
"eX c #C2A286",
"rX c #C4A38B",
"tX c #CAA28D",
"yX c #CDA185",
"uX c #D3A38A",
"iX c #CCA692",
"pX c #C5AB93",
"aX c #C6A993",
"sX c #D3AB94",
"dX c #D5A997",
"fX c #CBB29B",
"gX c #D6B599",
"hX c #E6B79A",
"jX c #EAB28D",
"kX c #D8B9A4",
"lX c #D0BBB6",
"zX c #E2BAA6",
"xX c #F2C697",
"cX c #EAC6A8",
"vX c #F3C9A8",
"bX c #E8CAB5",
"nX c #F0D2B4",
"mX c #ECD2B6",
"MX c #F6DAC6",
"NX c #F9E7C8",
"BX c #FCF1CD",
"VX c #FAEDD2",
"CX c #FCF3D7",
"ZX c #FDF7E5",
"AX c #DECCC6",
"SX c None",
/* pixels */
"SXSXSXSXSXSXSXSXSXSXSXSXSXSXSXSXSXSXSXSXSXSXSXSXSXSXSXSXSXSXSXSXSXSXSXSXSXSXSXSXSXSXSXSXSXSXSXSXSXSXSXSXSXSXSXSXSXSXSXSXSXSXSXSX",
"SXSXSXSXSXSXSXSXSXSXSXSXSXSXSXSXSXSXSXSXSXSXSXSXSXSXSXSXSXSXSXSXSXSXSXSXSXSXSXSXSXSXSXSXSXSXSXSXSXSXSXSXSXSXSXSXSXSXSXSXSXSXSXSX",
"SXSXSXSXSXSXSXSXSXSXSXSXSXSXSXSXSXL.^.6X!.SXSXSXSXSXSXSXSXSXSXSXSXSXSXSXSXSXSXSXSXSXSXSXSXSXSXSXSXSXSXSXSXSXSXSXSXSXSXSXSXSXSXSX",
"SXSXSXSXSXSXSXSXSXSXSXSXSXSXSXSX8.L.L.3.2.~ SXSXSXSXSXSXSXSXSXSXSXSXSXSXSXSXSXSXSXSXSXSXSXSXSXSXSXSXSXSXSXSXSXSXSXSXSXSXSXSXSXSX",
"SXSXSXSXSXSXSXSXSXSXSXSXSXSXSXQ.1.~ / ^ ( } W SXSXSXSXSXSXSXSXSXSXSXSXSXSXSXSXSXSXSXSXSXSXSXSXSXSXSXSXSXSXSXSXSXSXSXSXSXSXSXSXSX",
"SXSXSXSXSXSXSXSXSXSXSXSXSXSXSX!.%./ / / / E c e SXSXSXSXSXSXSXSXSXSXSXSXSXSXSXSXSXSXSXSXSXSXSXSXSXSXSXSXSXSXSXSXSXSXSXSXSXSXSXSX",
"SXSXSXSXSXSXSXSXSXSXSXSXSXSXSXd.~ / / / / / N 7 SXSXSXSXSXSXSXSXSXSXSXSXSXSXSXSXSXSXSXSXSXSXSXSXSXSXSXSXSXSXSXSXSXSXSXSXSXSXSXSX",
"SXSXSXSXSXSXSXSXSXSXSXSXSXSXSX;.! ( 0.3./ / ^ 7 r SXSXSXSXSXSXSXSXSXSXSXSXSXSXSXSXSXSXSXSXSXSXSXSXSXSXSXSXSXSXSXSXSXSXSXSXSXSXSX",
"SXSXSXSXSXSXSXSXSXSXSXSXSXSXSX$.%.2.0.3.` / ) p 4 SXSXSXSXSXSXSXSXSXSXSXSXSXSXSXSXSXSXSXSXSXSXSXSXSXSXSXSXSXSXSXSXSXSXSXSXSXSXSX",
"SXSXSXSXSXSXSXSXSXSXSXSXSXSXSX} ~ &.3.3.m./ ) Q 4 4 SXSXSXSXSXSXSXSXSXSXSXSXSXSXSXSXSXSXSXSXSXSXSXSXSXSXSXSXSXSXSXSXSXSXSXSXSXSX",
"SXSXSXSXSXSXSXSXSXSXSXSXSXSXSXm f o.3.3.3.( ( %.6 X SXSXSXSXSXSXSXSXSXSXSXSXSXSXSXSXSXSXSXSXSXSXSXSXSXSXSXSXSXSXSXSXSXt.SXSXSXSX",
"SXSXSXSXSXSXSXSXSXSXSXSXSXSXSXQ ! ( &.2.&.W T T t X 9 SXSXSXSXSXSXSXSXSXSXSXSXSXSXSXSXSXSXSXSXSXSXSXSXSXSXSXSXSXSXK.I x r SXSXSX",
"SXSXSXSXSXSXSXSXSXSXSXSXSXSXSXo.%.%.2.2.$...T d 0 < = SXSXSXSXSXSXSXSXSXSXSXSXSXSXSXSXSXSXSXSXSXSXSXSXSXSXSXSXt.t.e q q e SXSXSX",
"SXSXSXSXSXSXSXSXSXSXSXSXSXSXSX} 9.0.7.:.$.$.f w r 5 < 1 SXSXSXSXSXSXSXSXSXSXSXSXSXSXSXSXSXSXSXSXSXSXSXSXSXSXp.I q 4 4 4 x SXSXSX",
"SXSXSXSXSXSXSXSXSXSXSXSXSXSXSXb 9.9.k.k.u.r.j 0 w 0 =   SXSXSXSXSXSXSXSXSXSXSXSXSXSXSXSXSXSXSXSXSXSXSXSXSXI x 1 O 4 q e SXSXSXSX",
"SXSXSXSXSXSXSXSXSXSXSXSXSXSXSXv 4.j.l.R.c.>.j 6 6 5 # + X SXSXSXSXSXSXSXSXSXSXSXSXSXSXSXSXSXSXSXSXSXSXSXU q O . 1 e x x SXSXSXSX",
"SXSXSXSXSXSXSXSXSXSXSXSXSXSXSXn ;.P.k.T.}.s.m h 6 %   +   X SXSXSXSXSXSXSXSXSXSXSXSXSXSXSXSXSXSXSXSXSXU c 1 O 1 r q e SXSXSXSXSX",
"SXSXSXSXSXSXSXSXSXSXSXSXSXSXSXn +.T.j.,.4.z.:.] y %         j <XSXSXSXSXSXSXSXSXSXSXSXSXSXSXSXSXSXSXI x 4 O 1 r x q e SXSXSXSXSX",
"SXSXSXSXSXSXSXSXSXSXSXSXSXSXSXh M l.l.5.>.=.+.a a 8 6 =   + & x.<X<X4XSXSXSXSXSXSXSXSXSXSXSXSXSXSXK C 9 . o 7 x a 9 SXSXSXSXSXSX",
"SXSXSXSXSXSXSXSXSXSXSXSXSXSXSXh M T.}.}.>. . .t 0 y : @     + @.<Xi.i.aX7X8X8X7XSXSXSXSXSXSXSXSXK K g O o * e x x e SXSXSXSXSXSX",
"SXSXSXSXSXSXSXSXSXSXSXSXSXSXSXW o.l.}.}.d.>...t 6 : + @ +     8 x.i.y.4XaX4XU.3X6XQ.x.*.*.O.n G G q   * 1 7 w w e L SXSXSXSXSXSX",
"SXSXSXSXSXSXSXSXSXSXSXSXSXSXSX} $.l.M.T.d.d.+.: & @ + +   + + % i j F @.<XU.<X1X1XU.U.i.I n n Z 4 .   + 1 q w w e SXSXSXSXSXSXSX",
"SXSXSXSXSXSXSXSXSXSXSXSXSXSXSX6.6.z.z.j.] m m 8 : & - : 6 & @ & 6 5 8 j =.e.e.E.e.e.e.e.n v g 7 . .     2 g x v c SXSXSXSXSXSXSX",
"SXSXSXSXSXSXSXSXSXSXSXSXSXSXSXj.6.5.4.z.4.] m t 3 ; t t h i : & 8 i b h X.u.R.$XL.e.e.O.N h a 2 o   - 0 c Z c x P SXSXSXSXSXSXSX",
"SXSXSXSXSXSXSXSXSXSXSXSXSXSXSXs. .6.j.z.5.4.} 6 $ $ > y k j k Q 2.o.{ W { .XjX$X$Xt.e.J S v 8 2 < 0 n n C G D C SXSXSXSXSXSXSXSX",
"SXSXSXSXSXSXSXSXSXSXSXSXSXSXSX .j 6.l.z.5.s.:.t > > ; d } 7.b.n.&X;X*X*XOX;X;XxX=Xu.=.S S M 0 0 w v x n n G G I SXSXSXSXSXSXSXSX",
"SXSXSXSXSXSXSXSXSXSXSXSXSXSXSXa r $.M.l.5.:.+.j y t y v.n.n.n.#X&X*X;X*X%X>X>X:XxX/.{ M n n c w a h h a v I q.q.SXSXSXSXSXSXSXSX",
"SXSXSXSXSXSXSXSXSXSXSXSXSXSX0 5 8 k 6.j.:.....k h t ! `.`.).n.%X[.&X;X;X[.[.:X:X:X[.h b b n @.A a h h v A K w.K.SXSXSXSXSXSXSXSX",
"SXSXSXSXSXSXSXSXSXSXSXSXSXSX0 7 5 j k n M ]  .p s p m.`.`.`._.&X&X&X&X;X].].:X,X>X-XB j h n @.O.N N F A H G K SXSXSXSXSXSXSXSXSX",
"SXSXSXSXSXSXSXSXSXSXSXSXSXr 0 w 0 j j j n m k i t n 7.v.v.v.@X>X;X;X&X&X].[.>X,X-X-X_ p y y | | -.X.S H K G A SXSXSXSXSXSXSXSXSX",
"SXSXSXSXSXSXSXSXSXSXSXSXSXG D H O... .] m k j p d #.%.v.v.`.%XxX;X;X*X)._.].&X>X-X[.^ 8 8 t N | r.u.J H J n C SXSXSXSXSXSXSXSXSX",
"SXSXSXSXSXSXSXSXSXSXSXSXy.-.K =.r.<.4.4.:.j y p { #.#.v.`.+X+X*X&X%X@X) m.n.'.[.].].> : 6 i h { x.x.=.H A N D SXSXSXSXSXSXSXSXSX",
"SXSXSXSXSXSXSXSXSXSXSXt.y.q.=.,.e.r.:.#. .t t j m ] W &.|.|.|.b.3.0.3.! ) v.#X+X+X_.@ $ 3 i j N i.e.@.-.-.O.K SXSXSXSXSXSXSXSXSX",
"SXSXSXSXSXSXSXSXSXSXt.*.*.-.+.;.;.;.{ {  .t j k W m k o.7.M.N.n.7.m , p T &.#X#Xb.!     + , : 6 | @.@.-.,.*.L K SXSXSXSXSXSXSXSX",
"SXSXSXSXSXSXSXSXSXSXI -.-.w.=...{ { b m ] S ] m k h d l f u : , > & ; 3 u > o.7.7.u       + ; 8 h | | O.-.H G C G SXSXSXSXSXSXSX",
"SXSXSXSXSXSXSXSXSXL G *.-.O.H F S J n m o.5.:.m p t > $ ^ ' B.(.e.& # & ; ; ] %.5.> +   + + : 3 8 ] S w 7 a v v g L SXSXSXSXSXSX",
"SXSXSXSXSXSXSXSXSXP Z C x n H O.| J m o.o.[ h h y > > t S.J.$XZXAXt z % 3 ; ] [ %.& + + @ $ : ; : A 8 X + % 2 a e Z p.SXSXSXSXSX",
"SXSXSXSXSXSXSXSXSXC x g a a n | +.;.{  .M k t t $.6.W d D.J.` f.1X; R R u p 5.z.$.    # , $ : 3 H lXV V % +   - w P L SXSXSXSXSX",
"SXSXSXSXSXSXSXSXq g x g a w w h M ..#.M N m p l qXqXqXz.F.J.V.W Q p A.G.Q W XX}.W +   $ t : = E E @.u.B.z < < < r L Y w.SXSXSXSX",
"SXSXSXSXSXSXSXSX1 < 9 j 9 9 w a h k [ %.%.W k s.}.l.z.z.6.D.J.b ^ A.H.S.l f l.} Q + + & > t s C.E j E A._ w q q j c L w.SXSXSXSX",
"SXSXSXSXSXSXSXSX1 * * - 4 7 0 w v W %.7.b.N.b.o.$.6.s.j.$.~ Z.G.H.H.G.<.] d ]  .m & : $ 3 ]  .S.B.6 ' Z.` M c w 9 q e L SXSXSXSX",
"SXSXSXSXSXSXSXSX* * X . 1 < < 5 v o.o.6.v.).OX6.W Q Q Q 6.#.o.V.J.-X$XY.#.m l $.] u 2 $ l m ] C.Z.C.Z.A.1.+.c w 9 9 q SXSXSXSXSX",
"SXSXSXSXSXSXSXSXSX  .   = < 2 w v { | o.).OXOXoX] l p l z.j.6.:.z.M.}.5.#.l u +.l j 6 t ] ]  .j B.Z.S.1.8.g.,.c q w w SXSXSXSXSX",
"SXSXSXSXSXSXSXSXSXo X   * 2 q w h | ] ..=X=X=X=X] y u l z.z.5.:.] f f [ $.Q ] Q ] ] ] +.>.+. .n W 9.k.h.P.W.u.c x g e SXSXSXSXSX",
"SXSXSXSXSXSXSXSXSX* 1 - % = 4 8 g N c 9.=X=X%X+X$.k p } :.| l $.] y ] a.d.$. .d | #.>.d.d.d.>.y v ;.~.$X{.{.I.x e e Z SXSXSXSXSX",
"SXSXSXSXSXSXSXSXSX* * .     + - 0 h N OXOX@X+X+X%.n k p l l n d.d...c.Y.s.$.] l u ] r.r.d.r.@.6 i X.h.yX{.{.{.c a w x SXSXSXSXSX",
"SXSXSXSXSXSXSXSXSXO . . . % = 5 w a } _.`.'.+X+X&.j y u p l F d.0XMXwXE.r.] Q l t k d.d.x.i.e.c y.,.g X.I.$X$Xn v e SXSXSXSXSXSX",
"SXSXSXSXSXSXSXSXSX* O * o < < 2 0 M 6.b._.`.`.@X&.d d d d d a.dXzXMXMXzXa. .] l l  .@.d.<X<X4XK.i.,.g w x $X/.A A G SXSXSXSXSXSX",
"SXSXSXSXSXSXSXU L r 1 %   o = 5 n $.4.5.n.`.`._.n.m.) T &.M.qXzXMXMXNXVXMXdX3XY.#.+...>.<X7X7X<XK.,.0 < q /.1.n I K SXSXSXSXSXSX",
"SXSXSXSXSXSXU *.P Z *   % % : 5 m | $.:.b._.n.n.N.N.v.7.|.jXjXzXMXNXNXZXZXbXwXL.d.e.+.F F | H y.i.*.9 4 7 X.v x D L SXSXSXSXSXSX",
"SXSXSXSXSXU U U P L D i w a j w 5 5 8 y Q 9.}.XXqXqXqXhXhXxXvXBXNXNXZXZXZXCXlXbXAXY.i -   + = U.y.O.g 9 r e e e B L SXSXSXSXSXSX",
"SXSXSXSXSXSXSXK w.y.y.L A h a w 5 6 0 a ] W o.T.qXqXjXhXhXxXNXCXNXVXCXCXBXVXCXCXMXzXwX$ + + F U.u.L G w x B w e G K.SXSXSXSXSXSX",
"SXSXSXSXSXSXSXt.O.q.y.*.*.O.A a 7 w i h | ] m m &.qXjXhXhXzXNXNXnXCXCXBXBXBXNXCXAXbXbXF & j u.n h c n A C c H L.!.3XSXSXSXSXSXSX",
"SXSXSXSXSXSXSXy.L L O.q.u.U.W.W.<.| n S | ] N M +.s.zXvXvXzXvXvXnXVXCXCXVXVXNXmXnXnXbXU.8 1XR.<.N g n H I L.^.Q.!.4XSXSXSXSXSXSX",
"SXSXSXSXSXSXSXSXP D O.u.W.9X2XE.R.T.T..Xk.g.a.d.d.c.|.zXvXcXzXvXmXNXNXVXNXMXmXmXhXhXzXgX~.rX~.g.h.J x *.L.Q.^.$X^.4XSXSXSXSXSXSX",
"SXSXSXSXSXSXSXSXG *.w.u.c.1X1XR.E.T..XuX X}.qX0Xc.c.M.qXvXvXnXnXcXvXcXzXcXbXbXbXzXgXsXtXdXwX1Xf.f.h.u.L.L.L.6X6X6X7XSXSXSXSXSXSX",
"SXSXSXSXSXSXSXI *.w.w.f.P.W.W.R.T.R.yXuXyX.XwXuXwXE.XX0X~.gXnXvXcXxXhXgXdXsXsXfXsX9X0X0XgXiX0Xf.L.!.5X5XQ.L.6X6X5XSXSXSXSXSXSXSX",
"SXSXSXSXSXSXi.q.q.*.-.f.Y.3XW.g.g.I.uXsXhXkXkXkXdX}.qX Xd.d.~.gXxXgXhXdXiXwX Xk.j.P.Y.~. X1XE.W.^.rXpX7X5XQ.6X5X5XSXSXSXSXSXSXSX",
"SXSXSXSXSXSXK.y.y.y.y.Q.5XpX~.R.L.g.eXsXgXkXkXsXR.}.}.Y.u.h.f.T.P..XuX0XR.j.s.s.h.Y.9XtX4.a.h.W.2XaX5X5X^.1X6X5X5XSXSXSXSXSXSXSX",
"SXSXSXSXSXU.y.y.y.y.u.Q.6X5X^.R.E.P.9XgXgXkXkX9X X9X9X XY.P.P.k.s.s.R.0X0X0X}.E.9XsXsX X4.4.4.L.3X1XQ.Q.Q.1X6X6X5XSXSXSXSXSXSXSX",
"SXSXSXSXQ.K.y.y.,.1.f.Q.Q.2X!.~.9XaXaXsXgXgXxXpX0XiXdXdX.XE.P.g.k.E.}.0XqX0XuXiXgXkXfX6XL.L.^.6X6XQ.Q.Q.1X!.6X^.6X5XSXSXSXSXSXSX",
"SXSXSXSXSXSX-.,.,.,.U.!.3X2X2XaXfXfXaX2XeXpXgXpX0XiXdXdX9X X.XE.R.R.R.0XwXtXiXiXkXfXrX^.Q./.6X5X6X!.Q.^.1X1X^.6X3X6XSXSXSXSXSXSX",
"SXSXSXSXSXSXI I -.8./.eXeXrX9XrXpXfXpX6X6X6X5XgXsXsXsXsXeX.XtXtX~.E.~.9X9XtXtXiXpX.X^.^.!.$XpX$XrX5X3X1XQ.Q.Q.6X5X5X^.SXSXSXSXSX",
"SXSXSXSXSXI *.,.8.I.{..XeXrX2X^.2XpXrX3X5XgXkXgXsXsXsXfXgXtXtXtX^.R.9X9XW.W.!.rXeXeXeX6XpX7XpXpXpX7X5X5X5X5XQ.5X5X4X6X^.SXSXSXSX"
};
